<?xml version="1.0" encoding="utf-8"?>
<!-- Generator: Adobe Illustrator 27.1.1, SVG Export Plug-In . SVG Version: 6.00 Build 0)  -->
<svg version="1.1" id="Calque_1" xmlns="http://www.w3.org/2000/svg" xmlns:xlink="http://www.w3.org/1999/xlink" x="0px" y="0px"
	 viewBox="0 0 32 32" style="enable-background:new 0 0 32 32;" xml:space="preserve">
<style type="text/css">
	.st0{fill:#FF4C22;}
</style>
<path class="st0" d="M29.6,11.5l-14-9.3c-0.3-0.2-0.8-0.2-1.1,0l-14,9.3C0.2,11.7,0,12,0,12.3v9.3c0,0.3,0.2,0.6,0.4,0.8l14,9.3
	c0.2,0.1,0.4,0.2,0.6,0.2s0.4-0.1,0.6-0.2l14-9.3c0.3-0.2,0.4-0.5,0.4-0.8v-9.3C30,12,29.8,11.7,29.6,11.5L29.6,11.5z M15,20.5
	L9.8,17l5.2-3.5l5.2,3.5L15,20.5z M16,11.8V4.9l11.2,7.5L22,15.8C22,15.8,16,11.8,16,11.8z M14,11.8l-6,4l-5.2-3.5L14,4.9V11.8z
	 M6.2,17L2,19.8v-5.6L6.2,17z M8,18.2l6,4v6.9L2.8,21.7L8,18.2z M16,22.2l6-4l5.2,3.5L16,29.1V22.2z M23.8,17l4.2-2.8v5.6L23.8,17z"
	/>
</svg>
